<mxfile host="app.diagrams.net" modified="2023-09-25T09:32:18.976Z" agent="Mozilla/5.0 (Macintosh; Intel Mac OS X 10.15; rv:109.0) Gecko/20100101 Firefox/116.0" etag="etbUqLl460fvifTXx8ty" version="21.7.5" type="github">
  <diagram name="Page-1" id="CK8S7-bgI1GndKZAxT2D">
    <mxGraphModel dx="1226" dy="756" grid="1" gridSize="10" guides="1" tooltips="1" connect="1" arrows="1" fold="1" page="1" pageScale="1" pageWidth="850" pageHeight="1100" math="0" shadow="0">
      <root>
        <mxCell id="0" />
        <mxCell id="1" parent="0" />
        <mxCell id="HEzsc_sYLcx4-lLgevDl-2" value="&lt;h1&gt;Parking Lot Requirement&lt;br&gt;&lt;/h1&gt;&lt;ul&gt;&lt;li&gt;Need to be able to reserve a parking spot&lt;/li&gt;&lt;li&gt;Need to able to pay the parking spot&lt;/li&gt;&lt;li&gt;Need to see available spot count for different parking lot on the app&lt;br&gt;&lt;/li&gt;&lt;li&gt;System needs to have a high consistency (no two people should be able to reserve the same spot at the same time)&lt;/li&gt;&lt;li&gt;3 types of vehicles (compact, regular, and large)&lt;/li&gt;&lt;li&gt;flat rate based on time, but different rates depending on the type of parking&lt;br&gt;&lt;/li&gt;&lt;/ul&gt;" style="text;html=1;strokeColor=none;fillColor=none;spacing=5;spacingTop=-20;whiteSpace=wrap;overflow=hidden;rounded=0;" vertex="1" parent="1">
          <mxGeometry x="30" y="20" width="430" height="200" as="geometry" />
        </mxCell>
        <mxCell id="HEzsc_sYLcx4-lLgevDl-3" value="&lt;h1&gt;API design&lt;br&gt;&lt;/h1&gt;&lt;p&gt;[POST] /reserve&lt;/p&gt;&lt;p&gt;body: parking_lot_id, space_id&lt;/p&gt;&lt;p&gt;---&lt;/p&gt;&lt;p&gt;[PUT] /cancel_reservation&lt;br&gt;params: reservation_id&lt;br&gt;&lt;/p&gt;&lt;p&gt;---&lt;br&gt;&lt;/p&gt;&lt;p&gt;[GET] /calculate_price&lt;/p&gt;&lt;p&gt;params: reservation_id&lt;/p&gt;&lt;p&gt;---&lt;br&gt;&lt;/p&gt;&lt;p&gt;[POST] /payment&lt;/p&gt;&lt;p&gt;body: reservation_id, payment_method: enum (stripe, paypal, visa)&lt;/p&gt;&lt;p&gt;---&lt;/p&gt;&lt;p&gt;[GET] /available_space&lt;br&gt;params: parking_lot_id&lt;br&gt;response: {is_allocate: boolean; types: enum; space_id: FK}[]&lt;/p&gt;&lt;p&gt;---&lt;/p&gt;&lt;p&gt;socket.io&lt;/p&gt;&lt;p&gt;connect, disconnect&lt;br&gt;&lt;/p&gt;&lt;p&gt;on(parking_lot_update)&lt;br&gt;params: parking_lot_id&lt;br&gt;emit: {space_id: FK; is_allocated: boolean}&lt;br&gt;&lt;/p&gt;&lt;p&gt;&lt;br&gt;&lt;/p&gt;" style="text;html=1;strokeColor=none;fillColor=none;spacing=5;spacingTop=-20;whiteSpace=wrap;overflow=hidden;rounded=0;" vertex="1" parent="1">
          <mxGeometry x="30" y="270" width="400" height="560" as="geometry" />
        </mxCell>
        <mxCell id="HEzsc_sYLcx4-lLgevDl-4" value="&lt;div align=&quot;left&quot;&gt;parking_lot&lt;br&gt;&lt;br&gt;&lt;/div&gt;&lt;div align=&quot;left&quot;&gt;id: PK;&lt;/div&gt;&lt;div align=&quot;left&quot;&gt;address: string;&lt;/div&gt;&lt;div align=&quot;left&quot;&gt;name: string;&lt;br&gt;flat_rate_compact: int;&lt;/div&gt;&lt;div align=&quot;left&quot;&gt;flat_rate_regular: int;&lt;/div&gt;&lt;div align=&quot;left&quot;&gt;flat_rate_large: int;&lt;br&gt;&lt;/div&gt;" style="rounded=0;whiteSpace=wrap;html=1;align=left;" vertex="1" parent="1">
          <mxGeometry x="470" y="270" width="190" height="130" as="geometry" />
        </mxCell>
        <mxCell id="HEzsc_sYLcx4-lLgevDl-5" value="&lt;div align=&quot;left&quot;&gt;reservation&lt;br&gt;&lt;br&gt;&lt;/div&gt;&lt;div align=&quot;left&quot;&gt;id: PK;&lt;/div&gt;&lt;div align=&quot;left&quot;&gt;space_id: FK;&lt;/div&gt;&lt;div align=&quot;left&quot;&gt;start_time: Date;&lt;/div&gt;&lt;div align=&quot;left&quot;&gt;end_time: null | Date;&lt;br&gt;paid: boolean;&lt;br&gt;&lt;/div&gt;" style="rounded=0;whiteSpace=wrap;html=1;align=left;" vertex="1" parent="1">
          <mxGeometry x="690" y="270" width="195" height="110" as="geometry" />
        </mxCell>
        <mxCell id="HEzsc_sYLcx4-lLgevDl-6" value="&lt;div&gt;space&lt;/div&gt;&lt;div&gt;&lt;br&gt;&lt;/div&gt;&lt;div align=&quot;left&quot;&gt;id: PK;&lt;/div&gt;&lt;div align=&quot;left&quot;&gt;parking_lot_id: FK;&lt;br&gt;&lt;/div&gt;&lt;div align=&quot;left&quot;&gt;space_id: FK;&lt;br&gt;type_id: FK&lt;br&gt;&lt;/div&gt;" style="rounded=0;whiteSpace=wrap;html=1;align=left;" vertex="1" parent="1">
          <mxGeometry x="910" y="270" width="195" height="110" as="geometry" />
        </mxCell>
        <mxCell id="HEzsc_sYLcx4-lLgevDl-7" value="type&lt;br&gt;&lt;div&gt;&lt;br&gt;&lt;/div&gt;&lt;div align=&quot;left&quot;&gt;id: PK;&lt;/div&gt;&lt;div align=&quot;left&quot;&gt;name: enum(compact, regular,...)&lt;br&gt;&lt;/div&gt;&lt;div align=&quot;left&quot;&gt;&lt;br&gt;&lt;/div&gt;" style="rounded=0;whiteSpace=wrap;html=1;align=left;" vertex="1" parent="1">
          <mxGeometry x="1130" y="270" width="195" height="110" as="geometry" />
        </mxCell>
        <mxCell id="HEzsc_sYLcx4-lLgevDl-25" style="edgeStyle=orthogonalEdgeStyle;rounded=0;orthogonalLoop=1;jettySize=auto;html=1;" edge="1" parent="1" source="HEzsc_sYLcx4-lLgevDl-8" target="HEzsc_sYLcx4-lLgevDl-24">
          <mxGeometry relative="1" as="geometry" />
        </mxCell>
        <mxCell id="HEzsc_sYLcx4-lLgevDl-8" value="Mobile / Web App" style="rounded=1;whiteSpace=wrap;html=1;" vertex="1" parent="1">
          <mxGeometry x="470" y="560" width="120" height="60" as="geometry" />
        </mxCell>
        <mxCell id="HEzsc_sYLcx4-lLgevDl-18" style="edgeStyle=orthogonalEdgeStyle;rounded=0;orthogonalLoop=1;jettySize=auto;html=1;entryX=0;entryY=0.5;entryDx=0;entryDy=0;" edge="1" parent="1" source="HEzsc_sYLcx4-lLgevDl-9" target="HEzsc_sYLcx4-lLgevDl-17">
          <mxGeometry relative="1" as="geometry" />
        </mxCell>
        <mxCell id="HEzsc_sYLcx4-lLgevDl-23" style="edgeStyle=orthogonalEdgeStyle;rounded=0;orthogonalLoop=1;jettySize=auto;html=1;entryX=0;entryY=0.5;entryDx=0;entryDy=0;entryPerimeter=0;" edge="1" parent="1" source="HEzsc_sYLcx4-lLgevDl-9" target="HEzsc_sYLcx4-lLgevDl-11">
          <mxGeometry relative="1" as="geometry" />
        </mxCell>
        <mxCell id="HEzsc_sYLcx4-lLgevDl-9" value="Web Server" style="rounded=0;whiteSpace=wrap;html=1;" vertex="1" parent="1">
          <mxGeometry x="727.5" y="560" width="120" height="60" as="geometry" />
        </mxCell>
        <mxCell id="HEzsc_sYLcx4-lLgevDl-11" value="&lt;div&gt;PostgresQL&lt;/div&gt;&lt;div&gt;(write)&lt;br&gt;&lt;/div&gt;" style="shape=cylinder3;whiteSpace=wrap;html=1;boundedLbl=1;backgroundOutline=1;size=15;" vertex="1" parent="1">
          <mxGeometry x="1030" y="460" width="100" height="110" as="geometry" />
        </mxCell>
        <mxCell id="HEzsc_sYLcx4-lLgevDl-13" value="&lt;div&gt;parking lot: 10,000&lt;/div&gt;&lt;div&gt;average parking spot in one lot: 200&lt;br&gt;users: 1million&lt;br&gt;reservation: under 500,000 one day&lt;br&gt;&lt;/div&gt;" style="text;html=1;strokeColor=none;fillColor=none;align=center;verticalAlign=middle;whiteSpace=wrap;rounded=0;" vertex="1" parent="1">
          <mxGeometry x="630" y="80" width="400" height="100" as="geometry" />
        </mxCell>
        <mxCell id="HEzsc_sYLcx4-lLgevDl-14" value="&lt;div&gt;PostgresQL&lt;/div&gt;&lt;div&gt;(read replica)&lt;br&gt;&lt;/div&gt;" style="shape=cylinder3;whiteSpace=wrap;html=1;boundedLbl=1;backgroundOutline=1;size=15;" vertex="1" parent="1">
          <mxGeometry x="1030" y="600" width="100" height="110" as="geometry" />
        </mxCell>
        <mxCell id="HEzsc_sYLcx4-lLgevDl-15" value="&lt;div&gt;PostgresQL&lt;/div&gt;&lt;div&gt;(read replica)&lt;br&gt;&lt;/div&gt;" style="shape=cylinder3;whiteSpace=wrap;html=1;boundedLbl=1;backgroundOutline=1;size=15;" vertex="1" parent="1">
          <mxGeometry x="1030" y="720" width="100" height="110" as="geometry" />
        </mxCell>
        <mxCell id="HEzsc_sYLcx4-lLgevDl-19" style="edgeStyle=orthogonalEdgeStyle;rounded=0;orthogonalLoop=1;jettySize=auto;html=1;entryX=0;entryY=0.5;entryDx=0;entryDy=0;entryPerimeter=0;" edge="1" parent="1" source="HEzsc_sYLcx4-lLgevDl-17" target="HEzsc_sYLcx4-lLgevDl-14">
          <mxGeometry relative="1" as="geometry" />
        </mxCell>
        <mxCell id="HEzsc_sYLcx4-lLgevDl-20" style="edgeStyle=orthogonalEdgeStyle;rounded=0;orthogonalLoop=1;jettySize=auto;html=1;" edge="1" parent="1" source="HEzsc_sYLcx4-lLgevDl-17" target="HEzsc_sYLcx4-lLgevDl-15">
          <mxGeometry relative="1" as="geometry" />
        </mxCell>
        <mxCell id="HEzsc_sYLcx4-lLgevDl-17" value="LB" style="rhombus;whiteSpace=wrap;html=1;" vertex="1" parent="1">
          <mxGeometry x="910" y="660" width="80" height="80" as="geometry" />
        </mxCell>
        <mxCell id="HEzsc_sYLcx4-lLgevDl-28" style="edgeStyle=orthogonalEdgeStyle;rounded=0;orthogonalLoop=1;jettySize=auto;html=1;entryX=0;entryY=0.5;entryDx=0;entryDy=0;" edge="1" parent="1" source="HEzsc_sYLcx4-lLgevDl-24" target="HEzsc_sYLcx4-lLgevDl-9">
          <mxGeometry relative="1" as="geometry" />
        </mxCell>
        <mxCell id="HEzsc_sYLcx4-lLgevDl-24" value="LB" style="rhombus;whiteSpace=wrap;html=1;" vertex="1" parent="1">
          <mxGeometry x="620" y="550" width="80" height="80" as="geometry" />
        </mxCell>
        <mxCell id="HEzsc_sYLcx4-lLgevDl-26" value="Web Server" style="rounded=0;whiteSpace=wrap;html=1;" vertex="1" parent="1">
          <mxGeometry x="737.5" y="570" width="120" height="60" as="geometry" />
        </mxCell>
        <mxCell id="HEzsc_sYLcx4-lLgevDl-27" value="Web Server" style="rounded=0;whiteSpace=wrap;html=1;" vertex="1" parent="1">
          <mxGeometry x="747.5" y="580" width="120" height="60" as="geometry" />
        </mxCell>
      </root>
    </mxGraphModel>
  </diagram>
</mxfile>
